<svg xmlns="http://www.w3.org/2000/svg" xmlns:xlink="http://www.w3.org/1999/xlink" width="159.4" height="155.079" viewBox="0 0 159.4 155.079">
  <defs>
    <clipPath id="clip-path">
      <rect id="Rectangle_12260" data-name="Rectangle 12260" width="14.936" height="15.87" fill="#fff"/>
    </clipPath>
  </defs>
  <g id="mobility_1" transform="translate(0 -16.853)">
    <g id="Group_39609" data-name="Group 39609" transform="translate(119.3 32.081)" clip-path="url(#clip-path)">
      <path id="Path_74769" data-name="Path 74769" d="M250.376,64h-9.815A2.54,2.54,0,0,0,238,66.512V79.87l1.412-1.084a3.927,3.927,0,0,1,2.385-.809h8.578a2.54,2.54,0,0,0,2.561-2.512V66.512A2.54,2.54,0,0,0,250.376,64Z" transform="translate(-238 -64)" fill="#fb9829"/>
      <path id="Path_74770" data-name="Path 74770" d="M244.92,76.27h1.228a.2.2,0,0,0,.2-.2v-3.63a.2.2,0,0,0-.2-.2H244.92a.2.2,0,0,0-.2.2v3.621A.2.2,0,0,0,244.92,76.27Zm4.719-4.43H252.3a.676.676,0,0,1,.184.026.6.6,0,0,1,.4.757l-.842,2.658a1.432,1.432,0,0,1-1.368.989h-3.71a.2.2,0,0,1-.2-.2v-3.63a.559.559,0,0,1,.053-.232l1.219-2.778a.614.614,0,0,1,.579-.4.6.6,0,0,1,.614.6v1.815A.393.393,0,0,0,249.639,71.841Z" transform="translate(-241.35 -66.508)" fill="#fff" fill-rule="evenodd"/>
    </g>
    <path id="Path_74771" data-name="Path 74771" d="M79.7,326.542c44.017,0,79.7-3.7,79.7-8.271S123.717,310,79.7,310,0,313.7,0,318.271,35.683,326.542,79.7,326.542Z" transform="translate(0 -154.61)" fill="#e9ebee" opacity="0.17"/>
    <path id="Path_74772" data-name="Path 74772" d="M78.112,192.921a6.881,6.881,0,0,1-6.872-6.869V70.868A6.881,6.881,0,0,1,78.112,64h57.314a6.881,6.881,0,0,1,6.872,6.868V186.041a6.881,6.881,0,0,1-6.872,6.869H78.112Z" transform="translate(-35.53 -31.919)" fill="#ef423b" fill-rule="evenodd"/>
    <path id="Path_74773" data-name="Path 74773" d="M79.043,192.916a5.94,5.94,0,0,1-5.936-5.933V71.8a5.94,5.94,0,0,1,5.936-5.933h57.314a5.94,5.94,0,0,1,5.936,5.933V186.971a5.94,5.94,0,0,1-5.936,5.933H79.043Z" transform="translate(-36.461 -32.85)" fill="#fb9829" fill-rule="evenodd"/>
    <path id="Path_74774" data-name="Path 74774" d="M137.382,74.142H84.012A5.013,5.013,0,0,0,79,79.154V187.437a5.013,5.013,0,0,0,5.013,5.013h53.37a5.013,5.013,0,0,0,5.013-5.013V79.154A5.013,5.013,0,0,0,137.382,74.142Z" transform="translate(-39.4 -36.978)" fill="#fff"/>
    <path id="Path_74815" data-name="Path 74815" d="M4,0H24a4,4,0,0,1,0,8H4A4,4,0,0,1,4,0Z" transform="translate(58.2 35.466)" fill="#fb9829"/>
    <g id="Group_39614" data-name="Group 39614" transform="translate(-1.815 0)">
      <path id="Path_74775" data-name="Path 74775" d="M139.428,76.394h-7.317a.411.411,0,0,1-.412-.412v-.067a.411.411,0,0,1,.412-.412h7.317a.411.411,0,0,1,.412.412v.067A.4.4,0,0,1,139.428,76.394Z" transform="translate(-65.684 -36.359)" fill="#fff" fill-rule="evenodd"/>
      <path id="Path_74776" data-name="Path 74776" d="M158.679,75.274a1.125,1.125,0,1,1-1.125-1.124A1.122,1.122,0,0,1,158.679,75.274Z" transform="translate(-78.018 -35.684)" fill="#fff" fill-rule="evenodd"/>
    </g>
    <path id="Path_74777" data-name="Path 74777" d="M118.374,279h21.2a2.6,2.6,0,1,1,0,5.21h-21.2a2.6,2.6,0,1,1,0-5.21Z" transform="translate(-57.738 -139.149)" fill="#ef423b" fill-rule="evenodd"/>
    <path id="Path_74778" data-name="Path 74778" d="M109.537,265.651h32.032a.635.635,0,1,1,0,1.269H109.537a.635.635,0,0,1,0-1.269Z" transform="translate(-54.314 -132.491)" fill-rule="evenodd"/>
    <path id="Path_74779" data-name="Path 74779" d="M116.247,272.358h25.294a.635.635,0,0,1,0,1.269H116.247a.635.635,0,0,1-.635-.635A.642.642,0,0,1,116.247,272.358Z" transform="translate(-57.661 -135.836)" fill-rule="evenodd"/>
    <g id="Group_39611" data-name="Group 39611">
      <path id="Path_74816" data-name="Path 74816" d="M0,0H11.148V11.333H0Z" transform="translate(49.014 54.966)" fill="#fb9829" stroke="#fb9829" stroke-width="2"/>
      <rect id="Rectangle_12265" data-name="Rectangle 12265" width="30.148" height="9.333" rx="2" transform="translate(65.665 55.466)" fill="#fb9829"/>
      <path id="Path_74814" data-name="Path 74814" d="M51.619,60.265l2.7,2.7,5.89-5.89" transform="translate(-1)" fill="none" stroke="#fff" stroke-linecap="round" stroke-width="1"/>
    </g>
    <g id="Group_39612" data-name="Group 39612" transform="translate(0 20.215)">
      <rect id="Rectangle_12264" data-name="Rectangle 12264" width="11.148" height="11.333" transform="translate(49.014 54.966)" fill="none" stroke="#fb9829" stroke-width="2"/>
      <rect id="Rectangle_12265-2" data-name="Rectangle 12265" width="30.148" height="9.333" rx="2" transform="translate(65.665 55.466)" fill="#fb9829"/>
    </g>
    <g id="Group_39613" data-name="Group 39613" transform="translate(0 40.429)">
      <rect id="Rectangle_12264-2" data-name="Rectangle 12264" width="11.148" height="11.333" transform="translate(49.014 54.966)" fill="none" stroke="#fb9829" stroke-width="2"/>
      <rect id="Rectangle_12265-3" data-name="Rectangle 12265" width="30.148" height="9.333" rx="2" transform="translate(65.665 55.466)" fill="#fb9829"/>
    </g>
    <path id="Path_74787" data-name="Path 74787" d="M15,146.932l-1.025-1.695a3.341,3.341,0,0,1-.341-2.751,3.38,3.38,0,0,1,1.459-1.875l5.6-3.565a13.326,13.326,0,0,0,5.1-5.663l12.87-23.593,10.617,17.386,11.2,17.012-26.833,1.583a13.413,13.413,0,0,0-7.291,2.2l-5.6,3.565a3.359,3.359,0,0,1-4.655-.942Z" transform="translate(-6.726 -53.76)" fill="#fb9829" fill-rule="evenodd"/>
    <path id="Path_74788" data-name="Path 74788" d="M40.735,107.791l9.9,16.184-.461-.7ZM29.09,146.368l6.759,10.644a1.193,1.193,0,0,1-.375,1.635l-2.253,1.437a1.194,1.194,0,0,1-1.635-.376l-6.763-10.664a.666.666,0,0,0-.916-.2l-1.1.691a3.358,3.358,0,0,1-4.655-.942l-.523-.792a3.381,3.381,0,0,0,.99.249,3.634,3.634,0,0,0,2.274-.586l8.941-5.668a16.82,16.82,0,0,1,4.847-2.13l22.247-6,5.635,8.564-26.833,1.583a13.3,13.3,0,0,0-6.4,1.652.639.639,0,0,0-.324.407A.6.6,0,0,0,29.09,146.368Z" transform="translate(-8.793 -53.76)" fill="#fb9829" fill-rule="evenodd"/>
    <path id="Path_74789" data-name="Path 74789" d="M35.654,182.982l-5.191,3.289a.663.663,0,0,1,.74.278l.408.645,4.263-2.7-.4-.624a.648.648,0,0,1-.083-.517A.8.8,0,0,1,35.654,182.982Z" transform="translate(-15.193 -91.261)" fill="#fa9f0d" fill-rule="evenodd"/>
    <path id="Path_74790" data-name="Path 74790" d="M35.474,133.586a16,16,0,0,0,1.295-2.162l12.87-23.593,10.617,17.386,11.2,17.011-26.833,1.583a12.712,12.712,0,0,0-2.493.246,17.448,17.448,0,0,1-4.114-4.725A17.138,17.138,0,0,1,35.474,133.586Z" transform="translate(-17.693 -53.78)" fill="#e9ebee" fill-rule="evenodd"/>
    <path id="Path_74791" data-name="Path 74791" d="M53.573,107.791l9.9,16.184-.461-.7Zm-7.525,36.23a14.448,14.448,0,0,1-2.678-2.686,16.893,16.893,0,0,1,4.141-1.71l22.247-6,5.635,8.563-26.833,1.583A17.079,17.079,0,0,0,46.048,144.021Z" transform="translate(-21.631 -53.76)" fill="#a6b0bc" fill-rule="evenodd" opacity="0.3"/>
    <path id="Path_74792" data-name="Path 74792" d="M83.118,142.593c3.2-2.032.206-12.5-6.7-23.379s-15.093-18.052-18.3-16.02-.205,12.5,6.7,23.379S79.915,144.625,83.118,142.593Z" transform="translate(-28.349 -51.295)" fill="#fb9829"/>
    <path id="Path_74793" data-name="Path 74793" d="M84.8,142c2.227-1.413-.85-10.253-6.872-19.746s-12.709-16.044-14.935-14.631.85,10.253,6.872,19.746S82.57,143.415,84.8,142Z" transform="translate(-31.054 -53.582)"/>
    <path id="Path_74794" data-name="Path 74794" d="M77.858,146.156c-1.173-1.579-2.35-3.286-3.507-5.1s-2.2-3.615-3.129-5.351l2.693-.842,2.919,4.625,2.919,4.624Z" transform="translate(-35.521 -67.26)" fill="#fb9829" fill-rule="evenodd"/>
    <path id="Path_74795" data-name="Path 74795" d="M76.4,134.808c.607-.378,2.392,1.376,4.018,3.933s2.443,4.912,1.835,5.291-2.392-1.376-4.018-3.933S75.816,135.183,76.4,134.808Z" transform="translate(-38.009 -67.209)" fill="#ef423b" fill-rule="evenodd"/>
    <g id="Group_39610" data-name="Group 39610" transform="translate(111.84 16.853)" opacity="0.22">
      <path id="Path_74797" data-name="Path 74797" d="M223.819,34.98l.7-1.359h4.251l-5.652,3.894Z" transform="translate(-223.119 -33.621)" fill="#274ef6"/>
    </g>
    <path id="Path_74802" data-name="Path 74802" d="M191.759,277.432l-4.028-3.1a31.918,31.918,0,0,1-2.418-16.428,47.883,47.883,0,0,1,8.851,2.074l2.351,4.087.763-2.856a18.783,18.783,0,0,1,5.875,3.952l-.738,5.853,2.5-3.3a8.319,8.319,0,0,1,.606,1.754,158.435,158.435,0,0,1,2.793,21.327l-9.621.707a61.137,61.137,0,0,1-8.893-12.664Z" transform="translate(-92.292 -128.628)" fill="#ef423b"/>
    <path id="Path_74803" data-name="Path 74803" d="M199.049,287.853a9.088,9.088,0,0,0,4.683.772,69.391,69.391,0,0,1-8.581-12.687c-.146.018-.285.031-.427.041a9.581,9.581,0,0,1-6.307-1.856l-.2-.525a9.385,9.385,0,0,0,6.778,2.052c-.683-1.257-1.333-2.52-1.968-3.8a13.454,13.454,0,0,1-6.087-2.318l-.111-.445a13.776,13.776,0,0,0,6.045,2.45c-3.212-6.512-5.319-11.81-5.343-11.868l-.618-1.175.813.781c.039.1,1.767,4.395,4.309,9.79.954-2.469-.1-8.255-.4-9.815l.328.084c.362,1.834,1.4,7.728.249,10.095a114.616,114.616,0,0,0,5.893,10.955c.717-1.277-1.209-9.04.81-12.309a8.755,8.755,0,0,0,1.068-5.67l.327.183a8.957,8.957,0,0,1-1.137,5.645c-2.032,3.293.128,11.292-.894,12.428q.668,1.073,1.365,2.113c1.732-7.236,1.67-7.488,1.166-10.265-.3-1.6-.578-3.107.423-4.263.872-1,1.044-2.875,1.017-4.381.107.077.21.158.313.241,0,1.509-.21,3.311-1.1,4.337-1.6,1.837.413,4.762-.127,7.859-.505,2.8-1.325,6.249-1.463,6.818.955,1.4,1.947,2.748,2.969,3.992.356-.351,1.843-2.029,1.141-5.279-.567-2.642,1.686-6.219,3.21-8.267l.076.427c-1.482,2.043-3.515,5.375-2.994,7.776.757,3.47-.866,5.221-1.249,5.58a32.144,32.144,0,0,0,3.83,3.932l-.429.031c-.231-.2-.459-.4-.687-.619a5.617,5.617,0,0,1-4.942-.819,4.352,4.352,0,0,0-3.341-.543l-.211-.263a4.677,4.677,0,0,1,3.718.55,5.418,5.418,0,0,0,4.531.84q-.767-.738-1.518-1.544a9.48,9.48,0,0,1-5.036-.757,6.445,6.445,0,0,0-2.764-.445l-.215-.29A6.844,6.844,0,0,1,199.049,287.853Z" transform="translate(-93.179 -128.923)" fill="#fff"/>
    <path id="Path_74804" data-name="Path 74804" d="M264.51,303.174c-.4.029-5.763-2.209-14.379,1.055a52.5,52.5,0,0,0-14.673,8.645s10.213,1.209,19.316-.989S264.51,303.174,264.51,303.174Z" transform="translate(-117.433 -150.846)" fill="#ef423b"/>
    <path id="Path_74805" data-name="Path 74805" d="M237.267,312.119c5.49-4.383,14.039-9.166,21.5-9.593-1.238,4.512-3.1,7.87-7.149,10.136a68.816,68.816,0,0,1-14.532.373C237.136,312.756,237.2,312.446,237.267,312.119Z" transform="translate(-118.246 -150.882)" fill="#003842"/>
    <path id="Path_74806" data-name="Path 74806" d="M228.514,221.886l4.075,3.684-2.108-8.167a41.227,41.227,0,0,1,4.084-6.655c4.168-5.469,11.806-13.7,11.806-13.7a49.211,49.211,0,0,1,4.843,10.867l-3.914,4.626,4.877-.863c5.712,27.555-18.361,48.372-18.361,48.372l-5.239.387s-4.046-22.477-2.665-29.56A54.393,54.393,0,0,1,228.514,221.886Z" transform="translate(-112.528 -98.278)" fill="#fb9829"/>
    <path id="Path_74807" data-name="Path 74807" d="M225.674,233.62c.019-.454.045-.884.082-1.283,1.329,2.944,4.8,10.014,8.117,11.692.083-.3.173-.623.265-.936-3.252-.93-6.39-8.553-7.989-13.076.067-.372.163-.742.252-1.113,1.7,4.953,4.952,12.8,7.907,13.61a42.412,42.412,0,0,1,2.7-6.892,42.406,42.406,0,0,0,2.563-6.765c-2.887-1.877-5.634-10.539-6.913-15.151.14-.229.285-.45.439-.67,1.176,4.3,3.974,13.23,6.667,15.215.586-1.979,1.148-4.125,1.677-6.331-2.587-3.292-3.9-10.566-4.4-14.069.175-.213.353-.425.531-.637.422,3.057,1.648,10.417,4.052,13.93,2.6-11.05,4.566-23.148,4.594-23.333l.2-.435.033.454a271.2,271.2,0,0,1-5.214,27.4c4.628,1.152,9.334-2.362,11.85-4.7,0,.282-.006.564-.013.845a26.368,26.368,0,0,1-2.2,1.773,14.273,14.273,0,0,1-7.091,2.894,8.378,8.378,0,0,1-2.7-.224,67.764,67.764,0,0,1-2.759,8.45c4.173,1.112,9.944-.9,13.161-2.24-.068.254-.139.5-.211.759a31.1,31.1,0,0,1-9.037,2.377,12.383,12.383,0,0,1-4.169-.327c-.17.378-.339.735-.511,1.069-4.644,9.056-5.774,23.177-5.861,24.488l-.613.045a93.889,93.889,0,0,1,2.63-15.806C230.5,243.1,227.278,237.037,225.674,233.62Z" transform="translate(-112.553 -98.44)" fill="#fff"/>
    <path id="Path_74808" data-name="Path 74808" d="M184.289,286.1l1.357,4.429.989-3.313a29.129,29.129,0,0,1,3.923,2.428s.113,1.874.53,2.21,1.136-.868,1.136-.868a19.772,19.772,0,0,1,6.752,12.4l-3.254.968a34.456,34.456,0,0,1-5.017-.407c-1.72-.479-17.727-4.469-19.552-21.165A45.254,45.254,0,0,1,184.289,286.1Z" transform="translate(-85.362 -141.034)" fill="#fb9829"/>
    <path id="Path_74809" data-name="Path 74809" d="M196.236,303.761l-.428.605c-9.9-4.441-22.641-19.685-23.157-20.334l-.735-.964,1.214.587C173.259,283.818,186.271,300.07,196.236,303.761Z" transform="translate(-85.742 -141.178)" fill="#fff"/>
    <path id="Path_74810" data-name="Path 74810" d="M243.627,286.392l1.115,1.487-.022-2.344q.69-.51,1.451-.988l1.523,2.928.27-3.963a32.149,32.149,0,0,1,9.409-3.114s.01,11.032-4.49,16.223-12.159,4.915-12.159,4.915l-5.265.386A22.959,22.959,0,0,1,243.627,286.392Z" transform="translate(-117.434 -139.846)" fill="#fb9829"/>
    <path id="Path_74811" data-name="Path 74811" d="M243.993,301.819l-.8.059a74.246,74.246,0,0,0,17.289-20.6l.582-.4-.176.6A74.865,74.865,0,0,1,243.993,301.819Z" transform="translate(-121.292 -140.086)" fill="#f3dda3"/>
    <path id="Path_74812" data-name="Path 74812" d="M235.172,305.86s6.234-10.918,12.765-14.916,17.876-1.824,17.876-1.824-1.485,2.2-3.866,5.044l-4.338-.148,2.692,2.057c-3.837,4.281-9.181,9.183-14.389,10.417C236.2,308.794,235.172,305.86,235.172,305.86Z" transform="translate(-117.29 -143.902)" fill="#ef423b"/>
    <path id="Path_74813" data-name="Path 74813" d="M235.172,305.863s.079-.138.33-.559c1.756-1.464,7.466-6.115,12.77-9.713.374-1.3-.342-3.02-.992-4.217.145-.1.29-.2.438-.292a7.86,7.86,0,0,1,1.167,4.106c.246-.162,2.028-1.259,2.664-1.592.432-1.319-.343-2.789-1.1-3.822.17-.061.34-.122.522-.175a5.31,5.31,0,0,1,1.192,3.688c.622-.307,1.246-.591,1.864-.848a4.057,4.057,0,0,0,.8-3.664l.527-.064a4.92,4.92,0,0,1-.405,3.355c.551-.218,1.094-.4,1.625-.576,1.232-1.536,1.441-2.466,1.438-2.943l.523-.011a4.818,4.818,0,0,1-1.12,2.683,53.338,53.338,0,0,1,6.818-1.626l1.128-.114-1.188.715a38.039,38.039,0,0,0-13.282,4.338c2.422.1,4.95,2.185,6.411,3.379.244.2.505.409.711.573l-.384.368c-.179-.137-.4-.319-.672-.543-1.623-1.337-4.622-3.812-7.1-3.185-.323.205-1.917,1.279-2.3,1.546,2.375.184,6.01,2.818,7.822,4.253l-.39.38c-2.406-1.885-6.5-4.666-8.285-4C240.98,301.376,235.172,305.863,235.172,305.863Z" transform="translate(-117.29 -143.905)" fill="#fff"/>
  </g>
</svg>
